<?xml version="1.0" encoding="UTF-8" standalone="no"?>
<!-- Created with Inkscape (http://www.inkscape.org/) -->

<svg
   xmlns:dc="http://purl.org/dc/elements/1.1/"
   xmlns:cc="http://creativecommons.org/ns#"
   xmlns:rdf="http://www.w3.org/1999/02/22-rdf-syntax-ns#"
   xmlns:svg="http://www.w3.org/2000/svg"
   xmlns="http://www.w3.org/2000/svg"
   xmlns:sodipodi="http://sodipodi.sourceforge.net/DTD/sodipodi-0.dtd"
   xmlns:inkscape="http://www.inkscape.org/namespaces/inkscape"
   id="svg4181"
   version="1.1"
   inkscape:version="0.91 r13725"
   xml:space="preserve"
   width="551.25"
   height="210.22501"
   viewBox="0 0 551.25 210.22501"
   sodipodi:docname="logo_on_black_blue_icon.svg"><metadata
     id="metadata4187"><rdf:RDF><cc:Work
         rdf:about=""><dc:format>image/svg+xml</dc:format><dc:type
           rdf:resource="http://purl.org/dc/dcmitype/StillImage" /><dc:title></dc:title></cc:Work></rdf:RDF></metadata><defs
     id="defs4185" /><sodipodi:namedview
     pagecolor="#ffffff"
     bordercolor="#666666"
     borderopacity="1"
     objecttolerance="10"
     gridtolerance="10"
     guidetolerance="10"
     inkscape:pageopacity="0"
     inkscape:pageshadow="2"
     inkscape:window-width="1920"
     inkscape:window-height="1056"
     id="namedview4183"
     showgrid="false"
     inkscape:zoom="1.8150677"
     inkscape:cx="339.24979"
     inkscape:cy="157.52287"
     inkscape:window-x="0"
     inkscape:window-y="24"
     inkscape:window-maximized="1"
     inkscape:current-layer="layer2" /><g
     inkscape:groupmode="layer"
     id="layer2"
     inkscape:label="ink_ext_XXXXXX 1"
     style="display:inline" /><g
     id="g4189"
     inkscape:groupmode="layer"
     inkscape:label="ink_ext_XXXXXX"
     transform="matrix(1.25,0,0,-1.25,0,210.225)"
     style="display:inline"><g
       id="g5620"><path
         d="m 15.311157,2.8640533 0,-2.50624217 c -4.239105,0 -7.8500414,1.41641577 -10.8342477,4.25003237 C 1.4911336,7.440681 0,11.064882 0,15.481045 l 0,52.793781 2.8647397,0 0,-52.793781 c 0,-3.640113 1.2092196,-6.6528237 3.6264994,-9.0381013 C 8.9092984,4.0557182 11.848205,2.8640533 15.311157,2.8640533"
         style="fill:#ffffff;fill-opacity:1;fill-rule:nonzero;stroke:none"
         id="path4193"
         inkscape:connector-curvature="0" /><path
         d="m 39.933754,41.340624 0,-40.1770583 -2.86482,0 0,40.1770583 2.86482,0 z m -1.43216,9.84312 c -1.732526,0 -2.59654,0.805418 -2.59654,2.415754 0,1.611135 0.864014,2.416154 2.59654,2.416154 1.730426,0 2.596039,-0.805019 2.596039,-2.416154 0,-1.610336 -0.865613,-2.415754 -2.596039,-2.415754"
         style="fill:#ffffff;fill-opacity:1;fill-rule:nonzero;stroke:none"
         id="path4195"
         inkscape:connector-curvature="0" /><path
         d="m 79.688987,3.1325093 0,-2.50624219 c -4.239106,0 -7.850392,1.41641579 -10.834558,4.25159069 C 65.868963,7.7095265 64.37753,11.333687 64.37753,15.749951 l 0,41.876037 2.865419,0 0,-16.285364 12.356278,0 0,-2.505057 -12.356278,0 0,-23.085616 c 0,-3.640214 1.20846,-6.6540528 3.62618,-9.0381617 2.417219,-2.3876151 5.357006,-3.57928 8.819858,-3.57928"
         style="fill:#ffffff;fill-opacity:1;fill-rule:nonzero;stroke:none"
         id="path4197"
         inkscape:connector-curvature="0" /><path
         d="m 114.69874,3.1325093 0,-2.50624219 c -4.2391,0 -7.85049,1.41641579 -10.83416,4.25159069 -2.98566,2.8316687 -4.476996,6.4558292 -4.476996,10.8720932 l 0,41.876037 2.865716,0 0,-16.285364 12.35648,0 0,-2.505057 -12.35648,0 0,-23.085616 c 0,-3.640214 1.20846,-6.6540528 3.62638,-9.0381617 2.41692,-2.3876151 5.35661,-3.57928 8.81906,-3.57928"
         style="fill:#ffffff;fill-opacity:1;fill-rule:nonzero;stroke:none"
         id="path4199"
         inkscape:connector-curvature="0" /><path
         d="m 150.6037,2.8640533 0,-2.50624217 c -4.23811,0 -7.8495,1.41641577 -10.83316,4.25003237 -2.98667,2.8328375 -4.477,6.4570385 -4.477,10.8732015 l 0,52.793781 2.86472,0 0,-52.793781 c 0,-3.640113 1.20846,-6.6528237 3.62638,-9.0381013 2.41792,-2.3872255 5.3566,-3.5788904 8.81906,-3.5788904"
         style="fill:#ffffff;fill-opacity:1;fill-rule:nonzero;stroke:none"
         id="path4201"
         inkscape:connector-curvature="0" /><path
         d="m 186.82351,39.81929 c -4.74588,0 -8.954,-1.833892 -12.62536,-5.502973 -3.67136,-3.667883 -5.50654,-7.88936 -5.50654,-12.661134 0,-4.773672 1.5803,-8.948 4.74488,-12.5272899 l 26.05636,25.8599879 c -3.70235,3.221472 -7.92446,4.831409 -12.66934,4.831409 z m 0.93958,-39.72954449 -0.80564,0 c -5.67147,0 -10.61026,2.13282039 -14.81938,6.39806909 -4.20812,4.2645094 -6.31218,9.2301714 -6.31218,14.8989624 0,5.666794 2.08907,10.572321 6.2682,14.71858 4.17713,4.146659 9.34183,6.219389 15.49008,6.219389 6.14725,0 11.43089,-2.446521 15.84792,-7.336865 L 175.31765,7.2479221 c 3.87927,-3.1024622 7.6106,-4.6527144 11.192,-4.6527144 3.5814,0 6.78996,0.819023 9.6257,2.4601956 2.83473,1.6403935 5.17768,3.8329122 7.02886,6.5767567 l 0,-4.5629522 C 198.9251,2.4164935 193.79139,0.08974551 187.76309,0.08974551"
         style="fill:#ffffff;fill-opacity:1;fill-rule:nonzero;stroke:none"
         id="path4203"
         inkscape:connector-curvature="0" /><path
         d="m 244.88956,0 -0.80664,0 c -5.73044,0 -10.65524,2.1168217 -14.7734,6.353202 -4.11916,4.235202 -6.17824,9.200863 -6.17824,14.898523 0,5.695762 2.08807,10.617272 6.2672,14.765829 4.17714,4.144361 9.31284,6.218189 15.40112,6.218189 6.08828,0 11.28196,-2.297483 15.58004,-6.889254 l 0,-4.5654 c -1.85118,2.743095 -4.19513,4.922009 -7.02986,6.533145 -2.83573,1.611135 -5.80541,2.415254 -8.90902,2.415254 -4.95479,0 -9.26686,-1.833891 -12.93822,-5.502174 -3.67136,-3.668582 -5.50654,-8.038796 -5.50654,-13.108244 0,-5.072544 1.83518,-9.442059 5.50654,-13.1106508 3.67136,-3.6682525 7.98343,-5.502184 12.93822,-5.502184 3.10361,0 6.07329,0.8041992 8.90902,2.4153247 2.83473,1.6111255 5.17868,3.8169197 7.02986,6.6216981 l 0,-4.6539232 C 256.2005,2.2963151 251.03681,0 244.88956,0"
         style="fill:#ffffff;fill-opacity:1;fill-rule:nonzero;stroke:none"
         id="path4205"
         inkscape:connector-curvature="0" /><path
         d="m 296.28459,39.909391 c -3.16459,0 -5.95434,-1.193592 -8.37126,-3.57928 -2.41792,-2.387185 -3.62638,-5.161147 -3.62638,-8.321686 l 0,-26.8448593 -2.86572,0 0,40.2672593 2.86572,0 0,-5.995833 c 1.07452,2.027879 2.74478,3.698349 5.01376,5.010512 2.26799,1.312663 4.80485,1.968944 7.6106,1.968944 2.80575,0 5.49255,-0.954755 8.0594,-2.862865 l 0,-3.57888 c -2.62783,2.624126 -5.52153,3.936688 -8.68612,3.936688"
         style="fill:#ffffff;fill-opacity:1;fill-rule:nonzero;stroke:none"
         id="path4207"
         inkscape:connector-curvature="0" /><path
         d="m 326.63903,21.206874 c 0,-5.010512 1.83517,-9.350759 5.50553,-13.0189614 3.67136,-3.6690317 8.02842,-5.5037423 13.07416,-5.5037423 5.04275,0 9.35682,1.8347106 12.93822,5.5037423 3.5814,3.6682024 5.3726,8.0224334 5.3726,13.0638124 0,5.04058 -1.80719,9.409595 -5.41758,13.109443 -3.61239,3.698349 -7.92446,5.548223 -12.93822,5.548223 -5.01476,0 -9.35782,-1.865157 -13.02918,-5.593074 -3.67036,-3.728716 -5.50553,-8.098131 -5.50553,-13.109443 z m 39.57531,20.223951 0,-40.2672593 -2.86472,0 0,10.0210853 c -1.67225,-3.3990378 -4.17813,-6.0843768 -7.52064,-8.0521417 -3.34451,-1.9689436 -6.9259,-2.95262831 -10.7452,-2.95262831 -5.85138,0 -10.86514,2.07156321 -15.04228,6.21819181 -4.18013,4.1462792 -6.26819,9.1119402 -6.26819,14.8985032 0,5.785863 2.08806,10.752324 6.26819,14.898983 4.17714,4.146159 9.1909,6.218889 15.04228,6.218889 3.8193,0 7.47666,-1.014889 10.9681,-3.042768 3.49344,-2.027379 5.92435,-4.712738 7.29774,-8.05288 l 0,10.112025 2.86472,0"
         style="fill:#ffffff;fill-opacity:1;fill-rule:nonzero;stroke:none"
         id="path4209"
         inkscape:connector-curvature="0" /><path
         d="m 405.70069,57.71569 0,-2.505057 c -3.46345,0 -6.40214,-1.193592 -8.82006,-3.580079 -2.41792,-2.385687 -3.62638,-5.399187 -3.62638,-9.036203 l 0,-23.534326 12.5354,0 0,-2.506255 -12.5354,0 0,-15.3902043 -2.86471,0 0,41.4307853 c 0,4.413166 1.49133,8.037297 4.47599,10.870894 2.98467,2.833297 6.59606,4.250445 10.83516,4.250445"
         style="fill:#ffffff;fill-opacity:1;fill-rule:nonzero;stroke:none"
         id="path4211"
         inkscape:connector-curvature="0" /><path
         d="m 440.80001,3.1325093 0,-2.50624219 c -4.24011,0 -7.85049,1.41641579 -10.83416,4.25159069 -2.98667,2.8316687 -4.478,6.4558292 -4.478,10.8720932 l 0,41.876037 2.86572,0 0,-16.285364 12.35748,0 0,-2.505057 -12.35748,0 0,-23.085616 c 0,-3.640214 1.20846,-6.6540528 3.62638,-9.0381617 2.41792,-2.3876151 5.3576,-3.57928 8.82006,-3.57928"
         style="fill:#ffffff;fill-opacity:1;fill-rule:nonzero;stroke:none"
         id="path4213"
         inkscape:connector-curvature="0" /><path
         d="m 231.66647,147.22476 6.80896,-11.78609 -13.61792,0 6.80896,11.78609 z m 25.62155,-44.34743 -51.2411,0 17.07936,29.56462 17.08037,0 17.08137,-29.56462 z m -52.88137,17.77953 -6.80896,11.78509 13.61792,0 -6.80896,-11.78509 z m -25.61955,44.34643 51.2401,0 -17.08037,-29.56462 -17.08036,0 -17.07937,29.56462 z m 22.06514,-65.122479 61.62846,0 -18.8116,32.561139 17.50018,0 0,2.99672 -19.2314,0 -10.27141,17.77953 -10.27141,-17.77953 -4.98577,0 18.81159,32.56134 -61.62846,0 18.81159,-32.56134 -17.49917,0 0,-2.99672 19.2304,0 10.27141,-17.77853 10.27141,17.77853 4.98577,0 -18.81159,-32.561139"
         style="fill:#22b3eb;fill-opacity:1;fill-rule:nonzero;stroke:none"
         id="path4215"
         inkscape:connector-curvature="0" /></g></g></svg>